<?xml version="1.0" encoding="utf-8"?>
<!-- Generator: Adobe Illustrator 16.2.1, SVG Export Plug-In . SVG Version: 6.00 Build 0)  -->
<!DOCTYPE svg PUBLIC "-//W3C//DTD SVG 1.1//EN" "http://www.w3.org/Graphics/SVG/1.1/DTD/svg11.dtd">
<svg version="1.1" id="Layer_1" xmlns="http://www.w3.org/2000/svg" xmlns:xlink="http://www.w3.org/1999/xlink" x="0px" y="0px"
	 width="256px" height="256px" viewBox="0 0 256 256" enable-background="new 0 0 256 256" xml:space="preserve">
<path fill="#FFFFFF" d="M128,8c66.168,0,120,53.832,120,120c0,66.167-53.832,120-120,120S8,194.168,8,128C8,61.833,61.832,8,128,8
	 M128,0C57.309,0,0,57.31,0,128s57.309,128,128,128c70.69,0,128-57.309,128-128S198.69,0,128,0L128,0z M168.078,117.06l29.522,22.14
	l4.797-6.398l-34.477-25.857l-39.922,31.934l-39.922-31.934L53.6,132.801l4.797,6.398l29.523-22.14l40.078,32.065L168.078,117.06z"
	/>
</svg>
